# xmcd
#
# Track frame offsets: 
#        150
#        36660
#        71375
#        107265
#        146305
#        180665
#        217285
#        255540
#        290412
#
# Disc length: 4385 seconds
#
# Revision: 5
# Processed by: cddbd v1.4PL0 Copyright (c) Steve Scherf et al.
# Submitted via: ExactAudioCopy v0.90b4
#
DISCID=86111f09
DTITLE=Talamasca - Beyond the Mask
DYEAR=2000
DGENRE=Goa
TTITLE0=The Hunted becomes the Hunter (feat. Nomad)
TTITLE1=The Flow (Remix)
TTITLE2=Wake Up!
TTITLE3=Drops of Madness (Remix)
TTITLE4=Strangers (feat. Xerox and Domestic)
TTITLE5=Telepathic Atmospheres
TTITLE6=You are the Machines
TTITLE7=Halloween
TTITLE8=Beyond the Mask
EXTD=YEAR: 2000
EXTT0=
EXTT1=
EXTT2=
EXTT3=
EXTT4=
EXTT5=
EXTT6=
EXTT7=
EXTT8=
PLAYORDER=
